<svg xmlns="http://www.w3.org/2000/svg" width="512" height="512" viewBox="0 0 512 512">
  <defs>
    <linearGradient id="bg" x1="0" y1="0" x2="1" y2="1">
      <stop offset="0%" stop-color="#667eea"/>
      <stop offset="100%" stop-color="#764ba2"/>
    </linearGradient>
  </defs>
  <rect width="512" height="512" rx="96" fill="url(#bg)"/>
  <!-- Cat body -->
  <ellipse cx="256" cy="330" rx="96" ry="80" fill="#FFB347"/>
  <ellipse cx="256" cy="340" rx="56" ry="44" fill="#FFD699"/>
  <!-- Head -->
  <circle cx="256" cy="210" r="86" fill="#FFB347"/>
  <!-- Left ear -->
  <polygon points="190,140 174,74 218,120" fill="#FFB347"/>
  <polygon points="192,136 182,90 208,120" fill="#FF9F9F"/>
  <!-- Right ear -->
  <polygon points="322,140 338,74 294,120" fill="#FFB347"/>
  <polygon points="320,136 330,90 304,120" fill="#FF9F9F"/>
  <!-- Eyes -->
  <ellipse cx="224" cy="200" rx="14" ry="18" fill="#333"/>
  <ellipse cx="288" cy="200" rx="14" ry="18" fill="#333"/>
  <ellipse cx="228" cy="194" rx="5" ry="8" fill="white"/>
  <ellipse cx="292" cy="194" rx="5" ry="8" fill="white"/>
  <!-- Nose -->
  <polygon points="256,220 250,228 262,228" fill="#FF8F8F"/>
  <!-- Mouth -->
  <path d="M244,234 Q256,248 268,234" fill="none" stroke="#8B6914" stroke-width="3" stroke-linecap="round"/>
  <path d="M256,228 L256,236" stroke="#8B6914" stroke-width="2"/>
  <!-- Whiskers -->
  <line x1="170" y1="218" x2="206" y2="226" stroke="#8B6914" stroke-width="3" stroke-linecap="round"/>
  <line x1="168" y1="234" x2="206" y2="236" stroke="#8B6914" stroke-width="3" stroke-linecap="round"/>
  <line x1="342" y1="218" x2="306" y2="226" stroke="#8B6914" stroke-width="3" stroke-linecap="round"/>
  <line x1="344" y1="234" x2="306" y2="236" stroke="#8B6914" stroke-width="3" stroke-linecap="round"/>
  <!-- Paws -->
  <ellipse cx="200" cy="390" rx="24" ry="14" fill="#FFD699"/>
  <ellipse cx="312" cy="390" rx="24" ry="14" fill="#FFD699"/>
  <!-- Paw pads -->
  <circle cx="196" cy="388" r="3" fill="#FF9F9F"/>
  <circle cx="200" cy="392" r="3" fill="#FF9F9F"/>
  <circle cx="204" cy="388" r="3" fill="#FF9F9F"/>
  <circle cx="308" cy="388" r="3" fill="#FF9F9F"/>
  <circle cx="312" cy="392" r="3" fill="#FF9F9F"/>
  <circle cx="316" cy="388" r="3" fill="#FF9F9F"/>
  <!-- Tail -->
  <path d="M352,340 Q400,280 380,240" fill="none" stroke="#FFB347" stroke-width="16" stroke-linecap="round"/>
  <!-- Heart -->
  <path d="M380,200 C380,185 370,175 358,175 C342,175 336,190 336,190 C336,190 330,175 314,175 C302,175 292,185 292,200 C292,230 336,248 336,248 C336,248 380,230 380,200Z" fill="#FF4D6D" opacity="0.9"/>
  <!-- Star -->
  <polygon points="404,146 408,156 420,156 410,164 414,174 404,168 394,174 398,164 388,156 400,156" fill="#FFD700"/>
</svg>
